<svg xmlns="http://www.w3.org/2000/svg" xmlns:xlink="http://www.w3.org/1999/xlink" viewBox="0,0,256,256" width="24px" height="24px" fill-rule="nonzero"><g fill-opacity="0.61176" fill="#ff9432" fill-rule="nonzero" stroke="none" stroke-width="1" stroke-linecap="butt" stroke-linejoin="miter" stroke-miterlimit="10" stroke-dasharray="" stroke-dashoffset="0" font-family="none" font-weight="none" font-size="none" text-anchor="none" style="mix-blend-mode: normal"><g transform="scale(10.66667,10.66667)"><path d="M3.5,6.63c0.88,-1.38 2.08,-2.53 3.51,-3.33c2.07,0.68 4.32,2 6.05,3.97c-2.9,1.06 -6.3,1.07 -9.56,-0.64zM6.43,20.35c-2.71,-1.79 -4.5,-4.86 -4.5,-8.35c0,-1.26 0.23,-2.47 0.67,-3.58c2.11,1.1 4.27,1.59 6.36,1.59c1.88,0 3.69,-0.39 5.34,-1.07c0.37,0.6 0.69,1.26 0.95,1.96c-0.95,0.34 -1.89,0.79 -2.78,1.34c-3.07,1.92 -5.23,4.82 -6.04,8.11zM9.71,2.25c0.71,-0.16 1.46,-0.25 2.22,-0.25c2.28,0 4.37,0.76 6.05,2.04c-0.85,0.92 -1.88,1.73 -3.03,2.37c-1.48,-1.84 -3.36,-3.22 -5.24,-4.16zM15.94,13.89c0.46,4.66 -1.6,7.53 -1.85,7.87c-0.01,0 -0.01,0.01 -0.01,0.01c-0.69,0.15 -1.41,0.23 -2.15,0.23c-1.3,0 -2.53,-0.25 -3.67,-0.7c0.59,-2.98 2.49,-5.64 5.26,-7.36c0.73,-0.46 1.49,-0.83 2.27,-1.11c0.06,0.34 0.11,0.7 0.15,1.06zM21.92,12.34c-0.12,3.54 -2.07,6.62 -4.95,8.3c0.66,-1.6 1.26,-3.96 0.96,-6.95c-0.05,-0.48 -0.12,-0.95 -0.21,-1.4c1.44,-0.28 2.87,-0.27 4.2,0.05zM17.19,10.36c-0.3,-0.82 -0.66,-1.59 -1.09,-2.3c1.27,-0.73 2.41,-1.63 3.34,-2.66c1.19,1.35 2.02,3.02 2.34,4.87c-1.48,-0.26 -3.04,-0.23 -4.59,0.09z"></path></g></g></svg>